<?xml version="1.0" encoding="utf-8"?>
<!-- Generator: Adobe Illustrator 18.1.1, SVG Export Plug-In . SVG Version: 6.00 Build 0)  -->
<svg version="1.1" id="Layer_1" xmlns="http://www.w3.org/2000/svg" xmlns:xlink="http://www.w3.org/1999/xlink" x="0px" y="0px"
	 viewBox="0 0 612 792" enable-background="new 0 0 612 792" xml:space="preserve">
<g id="XMLID_13_">
	<g>
		<g id="XMLID_10_">
			<g>
				<path fill="#393536" d="M450.2,589L358,496.8c-25.4,16.9-55.8,26.2-87.9,26.2c-88.8,0-161.5-71.9-161.5-161.5
					c0-88.8,71.9-161.5,161.5-161.5c88.8,0,161.5,71.9,161.5,161.5c0,31.3-8.5,60-23.7,84.6l93,93c5.1,5.1,0.8,16.9-9.3,26.2
					l-13.5,13.5C466.2,589.8,454.4,594,450.2,589z M376.6,361.5c0-59.2-48.2-107.4-107.4-107.4s-107.4,48.2-107.4,107.4
					S210,468.9,269.2,468.9S376.6,420.7,376.6,361.5z"/>
			</g>
		</g>
	</g>
</g>
</svg>
